<svg xmlns="http://www.w3.org/2000/svg" width="29.227" height="28.497" viewBox="0 0 29.227 28.497" fill="#FFFFFF">
  <path id="Icon_awesome-github" data-name="Icon awesome-github" d="M9.776,23.508c0,.118-.136.212-.306.212-.194.018-.33-.077-.33-.212,0-.118.136-.212.306-.212C9.623,23.278,9.776,23.373,9.776,23.508Zm-1.833-.265c-.041.118.077.253.253.289a.276.276,0,0,0,.365-.118c.035-.118-.077-.253-.253-.306A.3.3,0,0,0,7.943,23.243Zm2.6-.1c-.171.041-.289.153-.271.289.018.118.171.194.348.153s.289-.153.271-.271S10.719,23.125,10.548,23.143ZM14.425.563A14.13,14.13,0,0,0,0,14.94a14.773,14.773,0,0,0,9.988,14.1c.754.136,1.019-.33,1.019-.713,0-.365-.018-2.381-.018-3.618,0,0-4.125.884-4.991-1.756,0,0-.672-1.715-1.638-2.157,0,0-1.349-.925.094-.907A3.11,3.11,0,0,1,6.729,21.4a3.115,3.115,0,0,0,4.3,1.232,3.275,3.275,0,0,1,.943-1.986c-3.294-.365-6.617-.843-6.617-6.511a4.466,4.466,0,0,1,1.391-3.471,5.567,5.567,0,0,1,.153-4c1.232-.383,4.066,1.591,4.066,1.591a13.921,13.921,0,0,1,7.4,0s2.834-1.98,4.066-1.591a5.565,5.565,0,0,1,.153,4,4.58,4.58,0,0,1,1.52,3.471c0,5.686-3.471,6.14-6.765,6.511a3.485,3.485,0,0,1,1,2.734c0,1.986-.018,4.443-.018,4.926,0,.383.271.849,1.019.713A14.637,14.637,0,0,0,29.227,14.94C29.227,6.767,22.6.563,14.425.563Zm-8.7,20.324c-.077.059-.059.194.041.306.094.094.23.136.306.059.077-.059.059-.194-.041-.306C5.94,20.851,5.8,20.809,5.728,20.886Zm-.636-.477c-.041.077.018.171.136.23A.175.175,0,0,0,5.48,20.6c.041-.077-.018-.171-.136-.23C5.227,20.332,5.132,20.35,5.091,20.409ZM7,22.506c-.094.077-.059.253.077.365.136.136.306.153.383.059.077-.077.041-.253-.077-.365C7.254,22.43,7.077,22.412,7,22.506Zm-.672-.866c-.094.059-.094.212,0,.348s.253.194.33.136a.269.269,0,0,0,0-.365C6.576,21.623,6.423,21.564,6.329,21.64Z" transform="translate(0 -0.563)" fill="#1a1d88"/>
</svg>