<svg xmlns="http://www.w3.org/2000/svg" width="40.807" height="40.807" viewBox="0 0 40.807 40.807">
  <path id="Icon_awesome-linkedin" data-name="Icon awesome-linkedin" d="M37.892,2.25H2.906A2.927,2.927,0,0,0,0,5.192V40.115a2.927,2.927,0,0,0,2.906,2.942H37.892a2.935,2.935,0,0,0,2.915-2.942V5.192A2.935,2.935,0,0,0,37.892,2.25ZM12.333,37.228H6.285V17.753h6.057V37.228ZM9.309,15.093a3.507,3.507,0,1,1,3.507-3.507,3.508,3.508,0,0,1-3.507,3.507ZM35,37.228H28.957V27.754c0-2.259-.046-5.165-3.143-5.165-3.152,0-3.634,2.459-3.634,5v9.637H16.132V17.753h5.8v2.66h.082a6.37,6.37,0,0,1,5.729-3.143c6.121,0,7.26,4.035,7.26,9.282Z" transform="translate(0 -2.25)" fill="#f8ffff"/>
</svg>